Simulation
nRows=39
nColumns=15
endheader
time  TH_x TH_y TH_z SC_y  SC_z  SC_x  AC_y  AC_z  AC_x  GH_y  GH_z  GH_yy  EL_x  PS_y
0.0  0.000000  0.000000  0.000000  -29.43528632356507  2.145033329111522  -6.253709186348546  55.772072952839245  10.372971857069668  -1.637701390825358  31.97418075199972  16.00351527602866  8.654890528572773  27.141491543372155  0.000000
0.038999999999999986  0.000000  0.000000  0.000000  -28.896029825415997  2.52278153407437  -6.375695405285994  55.38328137710615  10.309986965286296  -1.4826477240973162  31.989701436902788  16.15481205342749  8.39907925736856  26.724144030455562  0.000000
0.07799999999999997  0.000000  0.000000  0.000000  -28.40255185545952  2.8118299247257537  -6.5774360031956  55.01459469813518  10.21972521348901  -1.3438852217895911  31.914473726339054  16.241194952368016  8.253647981890675  26.29917243664873  0.000000
0.11699999999999997  0.000000  0.000000  0.000000  -27.978184638782242  2.997748045078762  -6.845406749536052  54.713151455945976  10.156307925119073  -1.2016589794253103  31.879887700689892  16.33588974437193  8.058894574014415  25.894709950204287  0.000000
0.15599999999999994  0.000000  0.000000  0.000000  -27.643432866794598  3.078662407029415  -7.143549230429751  54.522199926161704  10.155637592997142  -1.0518002763976053  32.05430287578277  16.52598028261446  7.589800321526256  25.532836794750793  0.000000
0.19499999999999992  0.000000  0.000000  0.000000  -27.41840818572617  3.0743385320790932  -7.418374998933861  54.46606254619691  10.227860971554339  -0.8970628673487864  32.60173560404925  16.892795406674875  6.630439303253327  25.232364096536607  0.000000
0.23399999999999993  0.000000  0.000000  0.000000  -27.303866582986245  3.016341852203967  -7.619832789149548  54.54000318827896  10.366536002681269  -0.7494166740481024  33.644788013393864  17.498802747573016  5.007092800713599  25.00471013549511  0.000000
0.2729999999999999  0.000000  0.000000  0.000000  -27.28861428758251  2.9377615361605622  -7.707081940346459  54.72478418160938  10.552967800383266  -0.6232760859956988  35.20432808487863  18.3862272115746  2.661225912707275  24.849622807427956  0.000000
0.3119999999999999  0.000000  0.000000  0.000000  -27.33933264367656  2.866934758379681  -7.652566831874102  54.99135808984309  10.762004617612973  -0.5323086124481995  37.184675208416444  19.573129427120204  -0.3399791660375023  24.758967782232016  0.000000
0.35099999999999987  0.000000  0.000000  0.000000  -27.408473226310004  2.8243770034319  -7.439332892618719  55.314166726987274  10.968166745680605  -0.48557656212126865  39.39017619550326  21.052035313357095  -3.80927900733012  24.72353519912203  0.000000
0.38999999999999985  0.000000  0.000000  0.000000  -27.44063630359563  2.8235883610286923  -7.058174870807203  55.67009172423667  11.150369565968303  -0.4883185447559503  41.59462269900729  22.789099819749268  -7.510878721234545  24.739841219824804  0.000000
0.4289999999999998  0.000000  0.000000  0.000000  -27.38662887909279  2.870062876143678  -6.505229952324497  56.042377189529425  11.29683506399475  -0.5439454805570356  43.60528269973575  24.729625058431353  -11.223849770877703  24.80333881349475  0.000000
0.46799999999999986  0.000000  0.000000  0.000000  -27.21281865058122  2.9657589800163144  -5.7802140725896285  56.4163493827099  11.403636007107814  -0.6537410940656024  45.30775210836886  26.8074151082126  -14.794007460404552  24.905096097080794  0.000000
0.5069999999999998  0.000000  0.000000  0.000000  -26.908251174436714  3.113109670019662  -4.88338017879155  56.779586406090615  11.46958395771652  -0.8171516170843552  46.67271670666844  28.95671105070024  -18.149128348729246  25.02890166985195  0.000000
0.5459999999999998  0.000000  0.000000  0.000000  -26.4852954027943  3.31469575217345  -3.814946892412337  57.11940282215713  11.492248684641524  -1.0327572459225602  47.73714685693519  31.122089161125462  -21.290111671389006  25.152384044629922  0.000000
0.5849999999999997  0.000000  0.000000  0.000000  -25.976442886934432  3.5727165106056273  -2.577197789462092  57.4228524411769  11.46733531302742  -1.298542621363247  48.57593081251746  33.26349229151292  -24.268625512204547  25.25429694344912  0.000000
0.6239999999999998  0.000000  0.000000  0.000000  -25.42690879246053  3.888320042603085  -1.1771918029781951  57.67745426075157  11.38974918722376  -1.6097508578952313  49.27530648930955  35.3563397066345  -27.15745908165341  25.320301881590627  0.000000
0.6629999999999998  0.000000  0.000000  0.000000  -24.881457024557804  4.260146599339909  0.37179691056173086  57.87534957235793  11.256690526404995  -1.9573581608159387  49.90673950701233  37.38813837590921  -30.015719449231405  25.342905710956487  0.000000
0.7019999999999997  0.000000  0.000000  0.000000  -24.372138795577516  4.683762595650918  2.0520097722446504  58.01725079897879  11.070664868936227  -2.3267894450222437  50.507948693589015  39.35160241287221  -32.85507561393987  25.318706952807236  0.000000
0.7409999999999998  0.000000  0.000000  0.000000  -23.912701690878485  5.152310708460671  3.842935313475879  58.112831660784366  10.840032131334668  -2.6979352377078794  51.07716454333896  41.23833648306341  -35.62718288254399  25.247718017321425  0.000000
0.7799999999999997  0.000000  0.000000  0.000000  -23.50342136379386  5.657184794349805  5.721310356797307  58.17729886990104  10.576965256899353  -3.04643825857595  51.58399572499403  43.03555625247503  -38.2392493320744  25.13410034651515  0.000000
0.8189999999999997  0.000000  0.000000  0.000000  -23.14071664095432  6.189160476870975  7.658103531749317  58.22569613082334  10.29407230570871  -3.345670810535869  51.98799481534466  44.727449663688525  -40.589583620378725  24.988782549160312  0.000000
0.8579999999999997  0.000000  0.000000  0.000000  -22.826581250733593  6.739564487114411  9.615836356388524  58.26912791347468  10.002290869800358  -3.5690921275823464  52.256119989787045  46.29911858820642  -42.60200172251739  24.830267870594323  0.000000
0.8969999999999997  0.000000  0.000000  0.000000  -22.572015634514468  7.301487244193252  11.548970421946853  58.31415952245844  9.7112053119808  -3.6926267494307026  52.37066160918794  47.74077876948982  -44.242010374502904  24.682504774506114  0.000000
0.9359999999999997  0.000000  0.000000  0.000000  -22.395159486002537  7.869994345269773  13.408896522657276  58.36521291370092  9.431598640397382  -3.697209738378193  52.33008118915562  49.05005137757343  -45.51462793137376  24.56772801806071  0.000000
0.9749999999999996  0.000000  0.000000  0.000000  -22.316187135163222  8.441419388722638  15.150751910677936  58.42717466708062  9.17731524963143  -3.570513873743557  52.14568456809655  50.23294596856113  -46.4535838282346  24.498205751626617  0.000000
1.0139999999999996  0.000000  0.000000  0.000000  -22.35225321960163  9.01227758217679  16.739372048673058  58.50606196454226  8.965449342651185  -3.307984504115539  51.83905268194969  51.302531988500895  -47.11182428123506  24.47163152319064  0.000000
1.0529999999999997  0.000000  0.000000  0.000000  -22.51401077291502  9.579256677073259  18.152045657943138  58.60700946584693  8.814106830197774  -2.9122379870046204  51.43981948653143  52.27572293474295  -47.55388112997902  24.473788134436166  0.000000
1.0919999999999996  0.000000  0.000000  0.000000  -22.804115164378846  10.139924158412704  19.37872097142343  58.73136912103819  8.739434224509619  -2.392000839222494  50.983038057241444  53.1683998151233  -47.848318856328135  24.486127924446347  0.000000
1.1309999999999996  0.000000  0.000000  0.000000  -23.217596605298585  10.6934963953271  20.420664851779964  58.87499156820185  8.752866248327727  -1.7603414638342707  50.505560040566465  53.991834333564434  -48.05889049129896  24.492519074593023  0.000000
1.1699999999999995  0.000000  0.000000  0.000000  -23.742822982789068  11.24075922089435  21.288405451125836  59.0299657300614  8.859011667593306  -1.0326059419557492  50.039287880455326  54.75198864046057  -48.23430889551329  24.481139779066503  0.000000
1.2089999999999996  0.000000  0.000000  0.000000  -24.362543553538885  11.782750690682946  22.00007461178902  59.18759322920396  9.05545532522872  -0.22484183176533595  49.60574067535785  55.451273492947784  -48.399488648771516  24.442152284003587  0.000000
1.2479999999999996  0.000000  0.000000  0.000000  -25.055089816673686  12.319057259559228  22.579197292895152  59.341474716862606  9.333840922412278  0.6469428475211119  49.212443221428  56.09127234570182  -48.55097310041874  24.364871489313625  0.000000
1.2869999999999995  0.000000  0.000000  0.000000  -25.79594535190879  12.846664532592657  23.05172411642101  59.48843201610825  9.681859989016278  1.5665750754421184  48.854180228011444  56.67462164329117  -48.66141419952026  24.237727473642984  0.000000
1.3259999999999996  0.000000  0.000000  0.000000  -26.55950947887183  13.359591274500263  23.442455230621448  59.62747352572802  10.084511701069703  2.5161490167320855  48.518284925312955  57.20523130584765  -48.69578833454529  24.05261587603978  0.000000
1.3649999999999995  0.000000  0.000000  0.000000  -27.321142262299055  13.849275793072925  23.77132599876556  59.75852268721293  10.524330857985122  3.4742222807258707  48.191713420551224  57.68775997206117  -48.63252751979695  23.811528972670487  0.000000
1.4039999999999995  0.000000  0.000000  0.000000  -28.058096249920265  14.305387857974985  24.050726448467557  59.8812347317831  10.982156758141604  4.4150618846249285  47.867012250570504  58.126009908107896  -48.47877668796911  23.53071642307841  0.000000
1.4429999999999994  0.000000  0.000000  0.000000  -28.74939036141066  14.717014321494673  24.28562766157858  59.994734837516994  11.43851675287339  5.309957425218855  47.5451947935117  58.52167962808212  -48.269245626654396  23.237166983350736  0.000000
1.4819999999999995  0.000000  0.000000  0.000000  -29.375170594799883  15.074206713379144  24.476099752474923  60.097861879432045  11.87547210320128  6.130587094019853  47.23532405231641  58.873490875584686  -48.05052858002108  22.958114786343298  0.000000
